<svg xmlns="http://www.w3.org/2000/svg" xmlns:xlink="http://www.w3.org/1999/xlink" width="500" zoomAndPan="magnify" viewBox="0 0 375 374.999991" height="500" preserveAspectRatio="xMidYMid meet" version="1.0"><defs><g/><clipPath id="e577f3f8e7"><path d="M 157.214844 132 L 178 132 L 178 162 L 157.214844 162 Z M 157.214844 132 " clip-rule="nonzero"/></clipPath><clipPath id="77e3d68242"><path d="M 157.214844 131 L 179 131 L 179 163 L 157.214844 163 Z M 157.214844 131 " clip-rule="nonzero"/></clipPath><clipPath id="acf0a4d3f5"><path d="M 197 132 L 217.964844 132 L 217.964844 162 L 197 162 Z M 197 132 " clip-rule="nonzero"/></clipPath><clipPath id="c04dd7b30c"><path d="M 196 131 L 217.964844 131 L 217.964844 163 L 196 163 Z M 196 131 " clip-rule="nonzero"/></clipPath><clipPath id="33a9ed7460"><path d="M 177 123.375 L 198 123.375 L 198 170.625 L 177 170.625 Z M 177 123.375 " clip-rule="nonzero"/></clipPath></defs><rect x="-37.5" width="450" fill="#ffffff" y="-37.499999" height="449.999989" fill-opacity="1"/><rect x="-37.5" width="450" fill="#ffffff" y="-37.499999" height="449.999989" fill-opacity="1"/><rect x="-37.5" width="450" fill="#171810" y="-37.499999" height="449.999989" fill-opacity="1"/><g clip-path="url(#e577f3f8e7)"><path fill="#03fa6e" d="M 176.378906 161.898438 C 176.042969 161.898438 175.714844 161.785156 175.449219 161.574219 L 158.460938 148.183594 C 158.09375 147.894531 157.886719 147.464844 157.886719 147 C 157.886719 146.535156 158.09375 146.101562 158.460938 145.8125 L 175.449219 132.421875 C 175.714844 132.214844 176.042969 132.101562 176.378906 132.101562 C 176.84375 132.101562 177.277344 132.308594 177.5625 132.675781 C 177.808594 132.992188 177.921875 133.386719 177.875 133.785156 C 177.828125 134.183594 177.625 134.542969 177.3125 134.792969 L 161.828125 147 L 177.3125 159.203125 C 177.625 159.457031 177.828125 159.8125 177.875 160.210938 C 177.921875 160.613281 177.808594 161.003906 177.5625 161.324219 C 177.277344 161.6875 176.84375 161.898438 176.378906 161.898438 " fill-opacity="1" fill-rule="nonzero"/></g><g clip-path="url(#77e3d68242)"><path fill="#2a446b" d="M 176.378906 131.457031 C 175.902344 131.457031 175.433594 131.621094 175.054688 131.917969 L 158.0625 145.308594 C 157.542969 145.722656 157.246094 146.335938 157.246094 147 C 157.246094 147.660156 157.542969 148.277344 158.0625 148.6875 L 175.054688 162.082031 C 175.429688 162.375 175.902344 162.539062 176.378906 162.539062 C 177.042969 162.539062 177.660156 162.238281 178.066406 161.71875 C 178.421875 161.269531 178.578125 160.707031 178.511719 160.136719 C 178.445312 159.566406 178.160156 159.054688 177.707031 158.699219 L 162.863281 147 L 177.707031 135.296875 C 178.160156 134.941406 178.445312 134.429688 178.511719 133.863281 C 178.578125 133.292969 178.421875 132.730469 178.066406 132.277344 C 177.660156 131.753906 177.042969 131.457031 176.378906 131.457031 Z M 176.378906 132.742188 C 176.636719 132.742188 176.890625 132.855469 177.058594 133.070312 C 177.355469 133.449219 177.289062 133.992188 176.914062 134.289062 L 160.789062 147 L 176.914062 159.710938 C 177.289062 160.003906 177.355469 160.550781 177.058594 160.925781 C 176.890625 161.144531 176.636719 161.257812 176.378906 161.257812 C 176.191406 161.257812 176.007812 161.195312 175.847656 161.070312 L 158.855469 147.679688 C 158.648438 147.515625 158.527344 147.261719 158.527344 147 C 158.527344 146.730469 158.648438 146.484375 158.855469 146.320312 L 175.847656 132.925781 C 176.003906 132.800781 176.191406 132.742188 176.378906 132.742188 " fill-opacity="1" fill-rule="nonzero"/></g><g clip-path="url(#acf0a4d3f5)"><path fill="#03fa6e" d="M 198.796875 161.898438 C 198.332031 161.898438 197.902344 161.6875 197.613281 161.324219 C 197.101562 160.671875 197.214844 159.71875 197.867188 159.203125 L 213.351562 147 L 197.867188 134.792969 C 197.214844 134.277344 197.101562 133.328125 197.613281 132.675781 C 197.902344 132.308594 198.332031 132.101562 198.796875 132.101562 C 199.132812 132.101562 199.464844 132.214844 199.726562 132.421875 L 216.71875 145.8125 C 217.082031 146.101562 217.289062 146.535156 217.289062 147 C 217.289062 147.464844 217.082031 147.894531 216.714844 148.183594 L 199.726562 161.574219 C 199.464844 161.785156 199.132812 161.898438 198.796875 161.898438 " fill-opacity="1" fill-rule="nonzero"/></g><g clip-path="url(#c04dd7b30c)"><path fill="#2a446b" d="M 198.796875 131.457031 C 198.136719 131.457031 197.519531 131.753906 197.109375 132.277344 C 196.378906 133.210938 196.539062 134.5625 197.46875 135.296875 L 212.316406 147 L 197.46875 158.703125 C 196.539062 159.433594 196.378906 160.789062 197.109375 161.71875 C 197.519531 162.238281 198.136719 162.539062 198.796875 162.539062 C 199.277344 162.539062 199.746094 162.375 200.121094 162.082031 L 217.113281 148.6875 C 217.632812 148.277344 217.929688 147.660156 217.929688 147 C 217.929688 146.335938 217.632812 145.722656 217.117188 145.308594 L 200.125 131.917969 C 199.75 131.621094 199.277344 131.457031 198.796875 131.457031 Z M 198.796875 132.742188 C 198.984375 132.742188 199.175781 132.800781 199.332031 132.925781 L 216.320312 146.320312 C 216.527344 146.484375 216.648438 146.730469 216.648438 147 C 216.648438 147.261719 216.527344 147.515625 216.320312 147.679688 L 199.332031 161.070312 C 199.175781 161.195312 198.984375 161.257812 198.796875 161.257812 C 198.539062 161.257812 198.289062 161.144531 198.117188 160.925781 C 197.824219 160.550781 197.886719 160.003906 198.261719 159.710938 L 214.386719 147 L 198.261719 134.289062 C 197.886719 133.992188 197.824219 133.449219 198.117188 133.070312 C 198.289062 132.855469 198.542969 132.742188 198.796875 132.742188 " fill-opacity="1" fill-rule="nonzero"/></g><path fill="#03fa6e" d="M 179.144531 169.980469 C 178.957031 169.980469 178.777344 169.945312 178.601562 169.875 C 178.226562 169.730469 177.929688 169.449219 177.769531 169.082031 C 177.605469 168.710938 177.597656 168.300781 177.742188 167.929688 L 194.335938 124.980469 C 194.558594 124.40625 195.121094 124.019531 195.738281 124.019531 C 195.925781 124.019531 196.109375 124.054688 196.28125 124.121094 C 197.054688 124.421875 197.441406 125.296875 197.140625 126.074219 L 180.550781 169.015625 C 180.328125 169.589844 179.761719 169.980469 179.144531 169.980469 " fill-opacity="1" fill-rule="nonzero"/><g clip-path="url(#33a9ed7460)"><path fill="#2a446b" d="M 195.738281 123.375 C 194.859375 123.375 194.054688 123.929688 193.738281 124.75 L 177.144531 167.695312 C 176.9375 168.230469 176.953125 168.8125 177.183594 169.339844 C 177.414062 169.863281 177.835938 170.269531 178.371094 170.476562 C 178.621094 170.574219 178.878906 170.621094 179.144531 170.621094 C 180.023438 170.621094 180.828125 170.070312 181.148438 169.246094 L 197.738281 126.304688 C 198.167969 125.199219 197.617188 123.949219 196.511719 123.523438 C 196.265625 123.425781 196.003906 123.375 195.738281 123.375 Z M 195.738281 124.660156 C 195.84375 124.660156 195.945312 124.679688 196.050781 124.71875 C 196.496094 124.890625 196.714844 125.390625 196.542969 125.839844 L 179.949219 168.78125 C 179.820312 169.128906 179.492188 169.335938 179.144531 169.335938 C 179.039062 169.335938 178.9375 169.320312 178.832031 169.277344 C 178.386719 169.105469 178.167969 168.601562 178.339844 168.160156 L 194.933594 125.214844 C 195.066406 124.871094 195.390625 124.660156 195.738281 124.660156 " fill-opacity="1" fill-rule="nonzero"/></g><g fill="#ffffff" fill-opacity="1"><g transform="translate(110.081829, 216.116295)"><g><path d="M 13.917969 0.539062 C 21.996094 0.539062 27.007812 -3.105469 27.007812 -9.402344 L 27.007812 -9.484375 C 27.007812 -15.203125 23.984375 -17.480469 15.449219 -20.132812 C 10.933594 -21.582031 9.15625 -22.574219 9.15625 -24.894531 L 9.15625 -24.9375 C 9.15625 -26.882812 10.976562 -28.375 14.828125 -28.375 C 18.101562 -28.375 21.414062 -27.421875 23.859375 -25.804688 L 26.34375 -31.234375 C 23.488281 -33.097656 19.136719 -34.171875 14.789062 -34.171875 C 7.167969 -34.171875 2.609375 -30.402344 2.609375 -24.8125 L 2.609375 -24.730469 C 2.609375 -19.179688 5.136719 -16.570312 12.46875 -14.375 C 18.472656 -12.507812 20.421875 -11.597656 20.421875 -9.363281 L 20.421875 -9.320312 C 20.421875 -6.75 17.730469 -5.300781 13.667969 -5.300781 C 10.023438 -5.300781 6.503906 -6.296875 4.019531 -7.953125 L 1.53125 -2.566406 C 4.515625 -0.578125 9.113281 0.539062 13.917969 0.539062 Z M 13.917969 0.539062 "/></g></g></g><g fill="#ffffff" fill-opacity="1"><g transform="translate(137.373291, 216.116295)"><g><path d="M 13.339844 -24.605469 C 10.3125 -24.605469 6.792969 -23.941406 5.011719 -23.238281 L 3.5625 -17.398438 C 6.171875 -18.433594 9.570312 -19.054688 11.929688 -19.054688 C 15.574219 -19.054688 17.644531 -17.976562 17.644531 -14.996094 L 17.644531 -14.125 C 15.699219 -14.375 14 -14.457031 12.261719 -14.457031 C 5.757812 -14.457031 1.65625 -12.136719 1.65625 -7.082031 L 1.65625 -7 C 1.65625 -1.410156 6.171875 0.664062 13.460938 0.664062 C 16.691406 0.664062 20.960938 0.207031 24.230469 -0.496094 L 24.230469 -15.203125 C 24.230469 -22.242188 19.925781 -24.605469 13.339844 -24.605469 Z M 8.410156 -7.414062 C 8.410156 -9.527344 10.398438 -10.273438 13.710938 -10.273438 C 14.746094 -10.273438 16.320312 -10.148438 17.644531 -9.941406 L 17.644531 -4.804688 C 16.277344 -4.597656 14.828125 -4.472656 13.710938 -4.472656 C 10.355469 -4.472656 8.410156 -5.300781 8.410156 -7.332031 Z M 8.410156 -7.414062 "/></g></g></g><g fill="#ffffff" fill-opacity="1"><g transform="translate(162.179921, 216.116295)"><g><path d="M 20.421875 0 L 20.421875 -6.089844 L 15.824219 -6.089844 C 13.007812 -6.089844 11.722656 -7.167969 11.722656 -9.816406 L 11.722656 -17.730469 L 20.378906 -17.730469 L 20.378906 -23.777344 L 11.722656 -23.777344 L 11.722656 -31.066406 L 5.136719 -31.066406 L 5.136719 -23.777344 L 0.953125 -23.777344 L 0.953125 -17.730469 L 5.136719 -17.730469 L 5.136719 -7.746094 C 5.136719 -2.566406 7.207031 0 12.882812 0 Z M 20.421875 0 "/></g></g></g><g fill="#ffffff" fill-opacity="1"><g transform="translate(182.762318, 216.116295)"><g><path d="M 13.253906 -24.730469 C 12.136719 -24.730469 10.5625 -24.605469 8.824219 -24.4375 L 8.824219 -33.59375 L 2.238281 -33.59375 L 2.238281 0 L 8.824219 0 L 8.824219 -18.433594 C 10.3125 -18.679688 11.886719 -18.847656 13.007812 -18.847656 C 16.070312 -18.847656 17.6875 -17.730469 17.6875 -14.746094 L 17.6875 0 L 24.273438 0 L 24.273438 -15.535156 C 24.273438 -22.65625 19.136719 -24.730469 13.253906 -24.730469 Z M 13.253906 -24.730469 "/></g></g></g><g fill="#ffffff" fill-opacity="1"><g transform="translate(207.693185, 216.116295)"><g><path d="M 5.507812 -26.882812 C 7.332031 -26.882812 8.78125 -27.792969 8.78125 -29.78125 C 8.78125 -31.5625 7.457031 -32.640625 5.507812 -32.640625 C 3.605469 -32.640625 2.238281 -31.5625 2.238281 -29.78125 C 2.238281 -27.792969 3.726562 -26.882812 5.507812 -26.882812 Z M 8.824219 0 L 8.824219 -23.777344 L 2.238281 -23.777344 L 2.238281 0 Z M 8.824219 0 "/></g></g></g><g fill="#ffffff" fill-opacity="1"><g transform="translate(217.176617, 216.116295)"><g><path d="M 12.136719 0.539062 C 19.21875 0.539062 22.742188 -2.03125 22.742188 -7.167969 C 22.742188 -10.933594 20.253906 -13.253906 14.910156 -14.746094 L 13.214844 -15.203125 C 10.355469 -16.03125 9.195312 -16.609375 9.195312 -17.8125 C 9.195312 -19.136719 10.605469 -19.59375 13.007812 -19.59375 C 15.035156 -19.59375 17.894531 -19.136719 20.007812 -18.019531 L 21.914062 -22.617188 C 19.46875 -23.902344 15.824219 -24.6875 12.21875 -24.6875 C 6.046875 -24.6875 2.566406 -21.996094 2.566406 -17.605469 C 2.566406 -13.667969 4.804688 -11.351562 9.777344 -10.023438 L 12.011719 -9.445312 C 15.492188 -8.492188 16.277344 -7.953125 16.277344 -6.667969 C 16.277344 -4.929688 14.375 -4.554688 11.558594 -4.554688 C 9.15625 -4.554688 6.253906 -5.09375 3.480469 -6.296875 L 1.699219 -1.53125 C 5.09375 -0.125 8.410156 0.539062 12.136719 0.539062 Z M 12.136719 0.539062 "/></g></g></g><g fill="#ffffff" fill-opacity="1"><g transform="translate(239.995379, 216.116295)"><g><path d="M 13.253906 -24.730469 C 12.136719 -24.730469 10.5625 -24.605469 8.824219 -24.4375 L 8.824219 -33.59375 L 2.238281 -33.59375 L 2.238281 0 L 8.824219 0 L 8.824219 -18.433594 C 10.3125 -18.679688 11.886719 -18.847656 13.007812 -18.847656 C 16.070312 -18.847656 17.6875 -17.730469 17.6875 -14.746094 L 17.6875 0 L 24.273438 0 L 24.273438 -15.535156 C 24.273438 -22.65625 19.136719 -24.730469 13.253906 -24.730469 Z M 13.253906 -24.730469 "/></g></g></g><g fill="#03fa6e" fill-opacity="1"><g transform="translate(120.640038, 245.299906)"><g><path d="M 4.425781 0.25 C 7.234375 0.25 9.136719 -1.308594 9.136719 -4.75 L 9.136719 -15.601562 L 6.097656 -15.601562 L 6.097656 -5.019531 C 6.097656 -3.445312 5.175781 -2.730469 3.828125 -2.730469 C 2.769531 -2.730469 1.617188 -3.210938 0.789062 -3.789062 L 0.0390625 -1.039062 C 0.886719 -0.367188 2.40625 0.25 4.425781 0.25 Z M 4.425781 0.25 "/></g></g></g><g fill="#03fa6e" fill-opacity="1"><g transform="translate(130.081875, 245.299906)"><g><path d="M 6.90625 0.308594 C 10.523438 0.308594 13.042969 -2.191406 13.042969 -5.597656 L 13.042969 -5.617188 C 13.042969 -9.003906 10.523438 -11.484375 6.90625 -11.484375 C 3.289062 -11.484375 0.789062 -9.003906 0.789062 -5.617188 L 0.789062 -5.597656 C 0.789062 -2.191406 3.308594 0.308594 6.90625 0.308594 Z M 6.90625 -2.425781 C 5.078125 -2.425781 3.847656 -3.808594 3.847656 -5.597656 L 3.847656 -5.636719 C 3.847656 -7.40625 5.058594 -8.753906 6.90625 -8.753906 C 8.773438 -8.753906 9.964844 -7.40625 9.964844 -5.636719 L 9.964844 -5.597656 C 9.964844 -3.808594 8.753906 -2.425781 6.90625 -2.425781 Z M 6.90625 -2.425781 "/></g></g></g><g fill="#03fa6e" fill-opacity="1"><g transform="translate(143.158276, 245.299906)"><g><path d="M 4.097656 0 L 4.097656 -8.5625 C 4.808594 -8.675781 5.5 -8.753906 6.039062 -8.753906 C 7.464844 -8.753906 8.234375 -8.234375 8.234375 -6.847656 L 8.234375 0 L 11.273438 0 L 11.273438 -7.214844 C 11.273438 -10.523438 8.90625 -11.484375 6.175781 -11.484375 C 5.058594 -11.484375 2.886719 -11.234375 1.039062 -10.90625 L 1.039062 0 Z M 4.097656 0 "/></g></g></g><g fill="#03fa6e" fill-opacity="1"><g transform="translate(154.753924, 245.299906)"><g><path d="M 4.097656 0 L 4.097656 -8.5625 C 4.808594 -8.675781 5.5 -8.753906 6.039062 -8.753906 C 7.464844 -8.753906 8.234375 -8.234375 8.234375 -6.847656 L 8.234375 0 L 11.273438 0 L 11.273438 -7.214844 C 11.273438 -10.523438 8.90625 -11.484375 6.175781 -11.484375 C 5.058594 -11.484375 2.886719 -11.234375 1.039062 -10.90625 L 1.039062 0 Z M 4.097656 0 "/></g></g></g><g fill="#03fa6e" fill-opacity="1"><g transform="translate(166.349575, 245.299906)"><g><path d="M 6.195312 -11.425781 C 4.789062 -11.425781 3.15625 -11.121094 2.328125 -10.792969 L 1.65625 -8.078125 C 2.867188 -8.5625 4.445312 -8.847656 5.539062 -8.847656 C 7.234375 -8.847656 8.195312 -8.347656 8.195312 -6.964844 L 8.195312 -6.558594 C 7.289062 -6.675781 6.503906 -6.714844 5.695312 -6.714844 C 2.675781 -6.714844 0.769531 -5.636719 0.769531 -3.289062 L 0.769531 -3.25 C 0.769531 -0.652344 2.867188 0.308594 6.253906 0.308594 C 7.753906 0.308594 9.734375 0.0976562 11.253906 -0.230469 L 11.253906 -7.058594 C 11.253906 -10.332031 9.253906 -11.425781 6.195312 -11.425781 Z M 3.90625 -3.445312 C 3.90625 -4.425781 4.828125 -4.769531 6.367188 -4.769531 C 6.847656 -4.769531 7.578125 -4.714844 8.195312 -4.617188 L 8.195312 -2.230469 C 7.558594 -2.136719 6.886719 -2.078125 6.367188 -2.078125 C 4.808594 -2.078125 3.90625 -2.460938 3.90625 -3.40625 Z M 3.90625 -3.445312 "/></g></g></g><g fill="#03fa6e" fill-opacity="1"><g transform="translate(177.86831, 245.299906)"><g><path d="M 4.097656 0 L 4.097656 -15.601562 L 1.039062 -15.601562 L 1.039062 0 Z M 4.097656 0 "/></g></g></g><g fill="#03fa6e" fill-opacity="1"><g transform="translate(182.271739, 245.299906)"><g><path d="M 6.195312 -11.425781 C 4.789062 -11.425781 3.15625 -11.121094 2.328125 -10.792969 L 1.65625 -8.078125 C 2.867188 -8.5625 4.445312 -8.847656 5.539062 -8.847656 C 7.234375 -8.847656 8.195312 -8.347656 8.195312 -6.964844 L 8.195312 -6.558594 C 7.289062 -6.675781 6.503906 -6.714844 5.695312 -6.714844 C 2.675781 -6.714844 0.769531 -5.636719 0.769531 -3.289062 L 0.769531 -3.25 C 0.769531 -0.652344 2.867188 0.308594 6.253906 0.308594 C 7.753906 0.308594 9.734375 0.0976562 11.253906 -0.230469 L 11.253906 -7.058594 C 11.253906 -10.332031 9.253906 -11.425781 6.195312 -11.425781 Z M 3.90625 -3.445312 C 3.90625 -4.425781 4.828125 -4.769531 6.367188 -4.769531 C 6.847656 -4.769531 7.578125 -4.714844 8.195312 -4.617188 L 8.195312 -2.230469 C 7.558594 -2.136719 6.886719 -2.078125 6.367188 -2.078125 C 4.808594 -2.078125 3.90625 -2.460938 3.90625 -3.40625 Z M 3.90625 -3.445312 "/></g></g></g><g fill="#03fa6e" fill-opacity="1"><g transform="translate(193.790474, 245.299906)"><g><path d="M 7.136719 -11.484375 C 3.230469 -11.484375 0.789062 -9.582031 0.789062 -6.078125 L 0.789062 -6.039062 C 0.789062 -2.519531 3.097656 -0.5 7.039062 -0.5 C 7.695312 -0.5 8.328125 -0.578125 8.925781 -0.691406 L 8.925781 -0.230469 C 8.925781 1.152344 8.347656 1.75 6.523438 1.75 C 5.5 1.75 3.75 1.480469 2.65625 1.019531 L 3.328125 3.847656 C 4.019531 4.15625 5.558594 4.445312 6.925781 4.445312 C 9.617188 4.445312 11.984375 3.386719 11.984375 0.078125 L 11.984375 -10.386719 C 10.832031 -10.925781 9.023438 -11.484375 7.136719 -11.484375 Z M 3.847656 -6.019531 C 3.847656 -7.925781 5.058594 -8.753906 7.136719 -8.753906 C 7.734375 -8.753906 8.328125 -8.675781 8.925781 -8.484375 L 8.925781 -3.445312 C 8.273438 -3.289062 7.675781 -3.230469 7.15625 -3.230469 C 5.039062 -3.230469 3.847656 -4.097656 3.847656 -6.003906 Z M 3.847656 -6.019531 "/></g></g></g><g fill="#03fa6e" fill-opacity="1"><g transform="translate(206.078423, 245.299906)"><g><path d="M 6.195312 -11.425781 C 4.789062 -11.425781 3.15625 -11.121094 2.328125 -10.792969 L 1.65625 -8.078125 C 2.867188 -8.5625 4.445312 -8.847656 5.539062 -8.847656 C 7.234375 -8.847656 8.195312 -8.347656 8.195312 -6.964844 L 8.195312 -6.558594 C 7.289062 -6.675781 6.503906 -6.714844 5.695312 -6.714844 C 2.675781 -6.714844 0.769531 -5.636719 0.769531 -3.289062 L 0.769531 -3.25 C 0.769531 -0.652344 2.867188 0.308594 6.253906 0.308594 C 7.753906 0.308594 9.734375 0.0976562 11.253906 -0.230469 L 11.253906 -7.058594 C 11.253906 -10.332031 9.253906 -11.425781 6.195312 -11.425781 Z M 3.90625 -3.445312 C 3.90625 -4.425781 4.828125 -4.769531 6.367188 -4.769531 C 6.847656 -4.769531 7.578125 -4.714844 8.195312 -4.617188 L 8.195312 -2.230469 C 7.558594 -2.136719 6.886719 -2.078125 6.367188 -2.078125 C 4.808594 -2.078125 3.90625 -2.460938 3.90625 -3.40625 Z M 3.90625 -3.445312 "/></g></g></g><g fill="#03fa6e" fill-opacity="1"><g transform="translate(217.597159, 245.299906)"><g><path d="M 6.90625 0.308594 C 8.964844 0.308594 10.351562 0 11.925781 -0.769531 L 11.925781 -15.601562 L 8.886719 -15.601562 L 8.886719 -11.195312 C 8.214844 -11.351562 7.503906 -11.484375 6.789062 -11.484375 C 3.019531 -11.484375 0.789062 -9.003906 0.789062 -5.617188 L 0.789062 -5.578125 C 0.789062 -2.191406 3.136719 0.308594 6.90625 0.308594 Z M 6.90625 -2.425781 C 4.90625 -2.425781 3.847656 -3.808594 3.847656 -5.578125 L 3.847656 -5.617188 C 3.847656 -7.386719 4.90625 -8.753906 6.90625 -8.753906 C 7.578125 -8.753906 8.292969 -8.597656 8.886719 -8.464844 L 8.886719 -2.675781 C 8.292969 -2.519531 7.636719 -2.425781 6.90625 -2.425781 Z M 6.90625 -2.425781 "/></g></g></g><g fill="#03fa6e" fill-opacity="1"><g transform="translate(229.84665, 245.299906)"><g><path d="M 6.90625 0.308594 C 8.964844 0.308594 10.351562 0 11.925781 -0.769531 L 11.925781 -15.601562 L 8.886719 -15.601562 L 8.886719 -11.195312 C 8.214844 -11.351562 7.503906 -11.484375 6.789062 -11.484375 C 3.019531 -11.484375 0.789062 -9.003906 0.789062 -5.617188 L 0.789062 -5.578125 C 0.789062 -2.191406 3.136719 0.308594 6.90625 0.308594 Z M 6.90625 -2.425781 C 4.90625 -2.425781 3.847656 -3.808594 3.847656 -5.578125 L 3.847656 -5.617188 C 3.847656 -7.386719 4.90625 -8.753906 6.90625 -8.753906 C 7.578125 -8.753906 8.292969 -8.597656 8.886719 -8.464844 L 8.886719 -2.675781 C 8.292969 -2.519531 7.636719 -2.425781 6.90625 -2.425781 Z M 6.90625 -2.425781 "/></g></g></g><g fill="#03fa6e" fill-opacity="1"><g transform="translate(242.096142, 245.299906)"><g><path d="M 6.195312 -11.425781 C 4.789062 -11.425781 3.15625 -11.121094 2.328125 -10.792969 L 1.65625 -8.078125 C 2.867188 -8.5625 4.445312 -8.847656 5.539062 -8.847656 C 7.234375 -8.847656 8.195312 -8.347656 8.195312 -6.964844 L 8.195312 -6.558594 C 7.289062 -6.675781 6.503906 -6.714844 5.695312 -6.714844 C 2.675781 -6.714844 0.769531 -5.636719 0.769531 -3.289062 L 0.769531 -3.25 C 0.769531 -0.652344 2.867188 0.308594 6.253906 0.308594 C 7.753906 0.308594 9.734375 0.0976562 11.253906 -0.230469 L 11.253906 -7.058594 C 11.253906 -10.332031 9.253906 -11.425781 6.195312 -11.425781 Z M 3.90625 -3.445312 C 3.90625 -4.425781 4.828125 -4.769531 6.367188 -4.769531 C 6.847656 -4.769531 7.578125 -4.714844 8.195312 -4.617188 L 8.195312 -2.230469 C 7.558594 -2.136719 6.886719 -2.078125 6.367188 -2.078125 C 4.808594 -2.078125 3.90625 -2.460938 3.90625 -3.40625 Z M 3.90625 -3.445312 "/></g></g></g></svg>